<?xml version="1.0" encoding="UTF-8"?>
<!DOCTYPE svg PUBLIC "-//W3C//DTD SVG 1.1//EN" "http://www.w3.org/Graphics/SVG/1.1/DTD/svg11.dtd">
<!-- Creator: CorelDRAW X8 -->
<svg xmlns="http://www.w3.org/2000/svg" xml:space="preserve" width="0.42311in" height="0.413358in" version="1.1" style="shape-rendering:geometricPrecision; text-rendering:geometricPrecision; image-rendering:optimizeQuality; fill-rule:evenodd; clip-rule:evenodd"
viewBox="0 0 64 63"
 xmlns:xlink="http://www.w3.org/1999/xlink">
 <defs>
  <style type="text/css">
   <![CDATA[
    .fil0 {fill:#CED0D2}
    .fil1 {fill:#F9583F}
   ]]>
  </style>
 </defs>
 <g id="Layer_x0020_1">
  <metadata id="CorelCorpID_0Corel-Layer"/>
  <g id="_2216042211344">
   <path class="fil0" d="M41 56c-4,1 -6,1 -10,1 -3,0 -7,-1 -9,-2 -3,-1 -5,-2 -7,-4 -2,-1 -4,-3 -5,-6 -5,-7 -6,-17 -1,-26 1,-2 2,-4 4,-6 0,0 0,0 0,0 1,-1 2,-2 3,-3 1,-1 3,-1 4,-2 2,-1 5,-2 9,-2 12,-2 23,6 27,17 1,2 1,6 1,9 0,2 0,3 0,5 -1,1 -1,4 -2,4 0,0 -7,-5 -7,-5 -3,-2 -5,-4 -8,-6 -2,-2 -5,-4 -7,-6l-6 -4c0,0 -1,0 -1,0 0,0 -1,1 -1,1 0,0 3,2 3,2l26 21c2,2 3,3 5,5 1,0 2,2 4,2 1,-1 1,-1 1,-2 0,-1 -1,-2 -2,-3 -1,0 -4,-3 -4,-3 0,0 1,-3 1,-5 0,-1 1,-2 1,-2 0,-1 0,-2 0,-3 1,0 1,0 2,0 1,-1 1,-2 0,-3 -1,0 -1,0 -2,0 0,-3 -1,-6 -2,-9 0,-1 -1,-2 -1,-3 1,0 2,-1 2,-2 -1,-2 -3,0 -4,0 0,0 -1,-2 -1,-3 -2,-1 -3,-3 -5,-4 0,-1 -2,-1 -2,-2 0,0 1,-1 1,-1 0,-1 0,-1 -1,-2 -1,-1 -2,1 -3,2 0,0 -4,-3 -11,-3 0,-1 0,-2 0,-2 -1,-1 -2,-1 -3,0 0,0 0,1 0,2 -1,0 -2,0 -3,0 -2,0 -4,1 -6,2 -1,0 -2,1 -3,1 0,-1 -1,-3 -2,-2 -1,1 -1,1 -1,2 0,0 1,1 1,1 -3,2 -6,5 -8,8 0,0 0,0 -1,1 0,0 -2,-2 -3,0 -1,1 1,2 2,2 -2,4 -3,8 -3,12 -1,0 -3,0 -3,1 0,2 2,2 3,2 0,1 0,2 0,3 0,2 1,4 2,6 0,1 1,2 1,3 -3,1 -2,3 0,3 0,-1 1,-1 1,-1 1,2 3,3 4,5 1,0 2,1 2,2 1,0 2,1 3,1 0,1 -2,3 0,3 1,1 2,-1 2,-1 1,0 1,0 2,0 0,1 0,1 1,1 3,1 5,2 9,2 0,1 0,1 0,2 1,1 2,1 3,0 0,-1 0,-1 0,-2 3,0 6,-1 9,-2 0,0 0,0 0,0l0 0c0,0 0,0 0,0 0,-1 -1,-2 -1,-2z"/>
   <path class="fil1" d="M46 59c1,1 2,2 2,2 2,3 5,2 4,-1 -1,-1 -4,-4 -4,-5l2 -2c1,-1 4,-4 4,-5l-2 -1c0,0 0,0 0,1 -1,0 -1,0 -1,0 -1,2 -4,4 -5,5 0,-1 -5,-7 -6,-7 -3,-4 -6,-8 -9,-12 -3,-3 -5,-6 -8,-9 0,-1 0,-1 0,-1 -1,-1 -2,0 -2,1l2 2c4,6 9,12 13,17 0,1 1,2 2,3 2,3 4,7 7,10 0,0 1,1 1,2z"/>
  </g>
 </g>
</svg>
