<svg xmlns="http://www.w3.org/2000/svg" xmlns:xlink="http://www.w3.org/1999/xlink" width="45.176" height="32.47" version="1.1" xml:space="preserve" style="shape-rendering:geometricPrecision;text-rendering:geometricPrecision;image-rendering:optimizeQuality;fill-rule:evenodd;clip-rule:evenodd" viewBox="0 0 78 56"><defs><style type="text/css">.fil1{fill:#ced0d2}.fil0{fill:#f9583f}</style></defs><g id="Layer_x0020_1"><metadata id="CorelCorpID_0Corel-Layer"/><g id="_2179896137216"><path d="M50 42c-1,3 -3,6 -5,9 -3,2 -6,3 -10,4 -1,0 -3,0 -4,-1 -3,0 -7,-2 -9,-5 -2,-3 -4,-5 -4,-10 0,-5 2,-8 4,-11 1,0 3,-2 4,-3 1,-1 4,-1 5,-2 1,0 3,0 4,0 1,0 4,0 4,1 2,0 5,2 6,3 1,1 4,5 4,7 1,1 1,2 1,4 0,1 0,3 0,4zm-35 -31l0 4c0,3 0,1 0,2 0,1 0,1 0,1 1,1 10,0 13,0 1,0 3,0 4,0 0,-1 -1,-1 -1,-1l0 -3 2 0 0 8c-2,0 -4,0 -5,1 -1,0 -2,1 -2,1 -1,0 -2,1 -2,1 -1,1 -4,3 -6,8 -2,5 -1,8 0,12 1,2 1,3 3,5 0,0 0,0 1,1 -1,0 -1,0 -1,0 0,1 -1,1 -1,1l-1 2c-1,0 0,0 -1,0 -1,0 0,0 -1,0 0,1 -1,1 -1,1 1,1 2,1 3,1 1,-1 0,-1 1,-2 0,0 1,-1 1,-1l1 -2 3 2c1,1 2,1 3,2 4,1 6,1 11,0 1,0 1,0 2,0 1,-1 1,-1 2,-1l3 -3 3 3c0,1 0,1 0,2 0,0 3,0 3,0 0,-1 -1,-1 -1,-2 -1,-1 -1,0 -2,-1 -1,-1 -2,-2 -2,-2l2 -4c2,-4 3,-9 1,-13 -1,-4 -4,-8 -7,-10l-4 -2 -4 0 0 -3 0 -5 2 0 0 3c0,0 -1,0 0,1 0,0 13,0 14,0 0,-1 0,-1 0,-1l0 -2 0 -4 0 -1c0,0 0,0 0,-1l-1 0 -3 0 -4 0 -4 0c-1,0 -2,0 -2,0 0,1 -1,1 0,1l0 0c0,0 0,0 0,0l0 1 0 2 -2 0c0,-1 0,-2 -1,-2 -1,0 -1,1 -1,2l-2 0 0 -3c0,0 1,0 1,-1 -1,0 -14,0 -16,0l-1 0c-1,1 0,1 0,1l0 1z" class="fil0"/><path d="M1 21l0 0 0 18c0,0 0,0 0,0 -1,1 0,0 -1,1 0,0 0,0 0,1l2 0 0 4 0 4c-1,1 -1,0 -1,2 0,0 0,1 0,2 1,0 2,0 3,0 0,-1 0,-2 0,-2 0,-2 -1,-1 -1,-2l0 -4 0 -4 13 0c0,-6 1,-10 4,-14 0,0 1,0 1,-2 0,-1 0,-2 0,-3l0 -1c1,0 1,0 1,-1l-2 0 -12 0c-1,0 -7,0 -8,0 0,1 0,1 1,1z" class="fil0"/><path d="M58 44c1,-1 3,-2 4,-2 1,-1 2,-2 3,-2l0 1 -7 3zm8 -44c0,3 0,3 -1,3 -2,1 -1,1 -3,1 -1,0 -3,1 -4,1 0,0 0,0 0,0 0,0 0,0 0,0 -1,0 -3,1 -3,2l11 0 0 1 -11 0c1,1 6,2 8,2 1,0 1,1 2,1l0 4 0 4 0 3 0 4 0 4 0 4 0 4 -7 5c-1,0 -2,1 -2,2 0,2 4,-1 5,-1 1,0 4,-2 5,-2l1 1c1,0 3,1 4,1 1,1 1,0 1,1 0,0 1,1 1,1 1,0 1,0 2,-1 0,-1 0,0 -1,-1 0,0 0,-1 -1,-1 0,1 -5,-1 -6,-2l0 -30c2,0 2,-1 2,-1 1,0 3,0 3,0 2,-1 3,-1 5,-1 0,-1 1,0 1,-1l-1 0 -10 0 0 -1 11 0c0,-1 -2,-1 -3,-2 -1,0 -6,-1 -6,-1 -2,-1 -2,-1 -2,-1 0,-1 0,-2 0,-3 -1,0 -1,0 -1,0z" class="fil1"/><path d="M46 22c0,5 0,1 3,7l13 0c0,1 -1,1 -2,1 -2,0 -9,0 -10,0l1 2 1 0 0 14c0,1 -2,0 -3,3l3 -1c2,1 1,1 3,0l3 1 1 1c0,1 0,0 1,1 2,0 4,0 1,-2 0,0 0,0 -2,-1 -1,0 -4,-1 -4,-2l0 -5 0 -3 0 -4 0 -2 3 0c1,0 3,0 4,-1 1,0 1,0 1,-1 0,-1 0,-2 0,-3 -1,-1 -1,0 -1,1 0,0 0,0 0,0 -1,0 0,0 -1,0l0 -6c1,0 1,0 1,0 1,-1 1,-1 1,-1l-1 0 -4 0 -11 0 -2 0c-1,1 0,1 1,1l0 0z" class="fil1"/><path d="M31 45c0,0 0,0 0,0 -1,2 -2,2 -1,4 0,3 2,4 5,4 1,-1 2,-1 3,-2 0,-1 1,-2 1,-3 0,-2 -2,-3 -4,-4 -2,0 -2,0 -4,1z" class="fil1"/></g></g></svg>