<?xml version="1.0" encoding="UTF-8"?>
<!DOCTYPE svg PUBLIC "-//W3C//DTD SVG 1.1//EN" "http://www.w3.org/Graphics/SVG/1.1/DTD/svg11.dtd">
<!-- Creator: CorelDRAW X8 -->
<svg xmlns="http://www.w3.org/2000/svg" xml:space="preserve" width="0.405122in" height="0.402031in" version="1.1" style="shape-rendering:geometricPrecision; text-rendering:geometricPrecision; image-rendering:optimizeQuality; fill-rule:evenodd; clip-rule:evenodd"
viewBox="0 0 58 58"
 xmlns:xlink="http://www.w3.org/1999/xlink">
 <defs>
  <style type="text/css">
   <![CDATA[
    .fil0 {fill:#CED0D2}
    .fil2 {fill:#F4F4F4}
    .fil1 {fill:#F9583F}
   ]]>
  </style>
 </defs>
 <g id="Layer_x0020_1">
  <metadata id="CorelCorpID_0Corel-Layer"/>
  <g id="_2179902435552">
   <path class="fil0" d="M16 45c0,-7 5,-12 11,-13 7,0 12,5 13,11 0,6 -5,12 -11,12 -7,1 -12,-4 -13,-10zm27 -3l0 -1c-1,-1 -1,-2 -1,-3l1 0 0 4zm-32 -34c1,1 1,0 2,0 0,2 0,4 1,7 0,2 1,2 4,3 1,0 3,1 4,2l0 1c2,0 3,1 5,2 0,0 1,0 1,0 1,0 1,0 2,-1 1,0 2,0 3,0l0 -2c2,0 5,0 6,0 2,0 2,-1 3,-3 0,0 0,-1 1,-1l0 9 -2 0 2 1 0 2 -2 0 -1 -5c-2,-1 -6,-1 -8,0 -1,0 -2,1 -3,1l1 6 -4 0 1 -6c-3,-2 -10,-2 -13,-1l0 8c-2,-1 -4,-1 -5,-1 -1,-3 -1,-7 -1,-11 2,0 7,3 8,2 0,-2 -5,-5 -7,-5 -1,-1 -8,-4 -9,-3 0,1 2,3 3,3 1,1 3,2 4,2 0,4 0,9 0,12 -1,0 -3,0 -4,1l-1 14c2,1 3,1 5,2l0 9 1 0 0 -9 6 0c1,7 8,11 15,11 4,0 7,-2 9,-4 1,-1 2,-2 3,-3 0,-1 1,-2 1,-3l0 -1c0,-1 0,-1 1,-1 0,0 0,0 0,0l0 10 2 0c0,-6 -1,-12 0,-18l2 0c0,-2 0,-8 0,-9 0,0 -2,-1 -2,-1l0 -2 3 1c0,9 0,19 0,29l2 0 0 -29c2,0 7,-1 8,-2 -2,-1 -5,-1 -8,-1l0 -2c0,0 -1,0 -2,0l0 2 -3 0 0 -8c11,0 10,-3 -2,-3l1 -2c0,1 0,1 1,1 0,-1 0,-1 -1,-1 0,-2 0,-3 -2,-2 -1,-2 -3,-3 -4,-4l-3 -3c0,0 0,-1 -1,-1 0,1 0,1 1,1l5 5c0,1 1,1 2,2l-2 2c-1,3 0,2 -3,3 -1,0 -3,1 -2,1 0,0 0,0 1,0 0,0 0,0 0,1l0 0c-4,0 -7,0 -10,0 -2,0 -3,-1 -5,-1 -1,-1 -2,-1 -4,-2 0,-2 0,-5 -1,-7 0,0 0,0 0,0l4 -3c1,0 1,-1 2,-1 1,-1 2,-1 2,-2 -1,0 -3,1 -3,2l-5 3c-1,1 -2,0 -2,1 -1,1 0,0 -2,2 -1,0 -1,0 -1,0z"/>
   <path class="fil1" d="M16 45c1,6 6,11 13,10 6,0 11,-6 11,-12 -1,-6 -6,-11 -13,-11 -6,1 -11,6 -11,13z"/>
   <path class="fil1" d="M27 4c-6,1 -5,11 2,10 2,-1 4,-3 4,-6 0,-2 -3,-4 -6,-4z"/>
   <path class="fil2" d="M43 42l0 -4 -1 0c0,1 0,2 1,3l0 1z"/>
  </g>
 </g>
</svg>
