<?xml version="1.0" encoding="UTF-8"?>
<!DOCTYPE svg PUBLIC "-//W3C//DTD SVG 1.1//EN" "http://www.w3.org/Graphics/SVG/1.1/DTD/svg11.dtd">
<!-- Creator: CorelDRAW X8 -->
<svg xmlns="http://www.w3.org/2000/svg" xml:space="preserve" width="0.334394in" height="0.25822in" version="1.1" style="shape-rendering:geometricPrecision; text-rendering:geometricPrecision; image-rendering:optimizeQuality; fill-rule:evenodd; clip-rule:evenodd"
viewBox="0 0 74 57"
 xmlns:xlink="http://www.w3.org/1999/xlink">
 <defs>
  <style type="text/css">
   <![CDATA[
    .fil0 {fill:#CED0D2}
    .fil1 {fill:#F9583F}
   ]]>
  </style>
 </defs>
 <g id="Layer_x0020_1">
  <metadata id="CorelCorpID_0Corel-Layer"/>
  <g id="_2179897124128">
   <path class="fil0" d="M12 32l2 1 0 17c5,2 13,3 18,3 4,0 15,-1 18,-3l1 -18 1 0 0 17c3,0 6,-2 8,-4 3,-3 2,-5 2,-10l0 -13c-4,3 -7,4 -13,6 -11,2 -23,2 -33,0 -10,-3 -11,-5 -13,-6l0 18c0,2 0,2 1,4 1,2 6,5 8,5l0 -17z"/>
   <path class="fil0" d="M32 24c-7,0 -15,-1 -21,-3 -3,-1 -6,-3 -7,-5 -3,-5 1,-8 2,-9 -1,1 -2,0 -3,1 -2,3 -2,7 -2,9 1,3 5,6 7,7 13,6 31,6 43,2 5,-2 12,-5 12,-10l0 -1c-3,-1 0,1 -6,4 -6,4 -17,5 -25,5z"/>
   <path class="fil0" d="M73 13c1,-2 0,-2 -2,-3l-33 -3c-7,-1 -13,-2 -20,-2 -1,0 -12,0 -13,0 0,-1 0,-1 -1,-1 -2,-1 -4,-1 -4,1 0,1 3,2 4,1 2,0 -1,0 4,0 11,2 16,3 28,4l29 3c1,1 3,1 4,1 3,0 3,1 4,-1z"/>
   <path class="fil0" d="M1 41c-1,8 5,11 11,13 7,2 14,3 21,3 11,0 34,-3 30,-16 -1,14 -41,17 -57,7 -1,-1 -2,-2 -3,-3 -1,-1 -1,-2 -2,-4z"/>
   <path class="fil1" d="M15 4c1,0 12,1 14,1 5,0 10,1 14,1 5,1 18,0 24,0 2,0 6,1 7,-1 1,-3 -6,-2 -7,-2 -17,0 -37,0 -52,1z"/>
   <path class="fil1" d="M43 15c0,-1 0,-2 -1,-3 -1,0 -15,-1 -16,-1 -1,0 -4,1 -4,3 -1,5 18,6 21,1z"/>
   <path class="fil0" d="M14 2c7,0 11,-2 25,-1 3,0 5,1 8,1 -7,-3 -27,-3 -33,0z"/>
   <path class="fil0" d="M4 13c1,-1 2,-2 2,-3 1,-1 2,-1 3,-2l-2 0c-1,1 -3,1 -3,5z"/>
  </g>
 </g>
</svg>
