<svg xmlns="http://www.w3.org/2000/svg" xmlns:xlink="http://www.w3.org/1999/xlink" width="61.87" height="35.54" version="1.1" xml:space="preserve" style="shape-rendering:geometricPrecision;text-rendering:geometricPrecision;image-rendering:optimizeQuality;fill-rule:evenodd;clip-rule:evenodd" viewBox="0 0 523 301"><defs><style type="text/css">.fil0{fill:#ced0d2}</style></defs><g id="Layer_x0020_1"><metadata id="CorelCorpID_0Corel-Layer"/><g id="_2179907275248"><path d="M232 95c-1,11 0,34 0,46 0,43 -5,92 18,122 20,28 62,46 99,34 16,-6 17,-10 28,-17 5,2 8,6 14,9 17,11 36,14 56,10 28,-5 46,-20 58,-35 15,-20 18,-46 18,-75 0,-32 0,-63 0,-94l-79 0 0 105c0,11 1,22 -9,25 -10,4 -18,-3 -19,-13 -2,-38 12,-63 -39,-64 -23,-1 -38,7 -38,30 -1,11 1,26 -1,35 -1,10 -9,16 -20,12 -9,-4 -7,-16 -7,-28 0,-19 1,-93 -1,-102l-78 0z" class="fil0"/><path d="M115 178l0 -84c-29,-5 -63,8 -79,21 -17,14 -32,33 -35,66 -7,61 31,109 82,118 63,11 108,-29 118,-81 5,-28 3,-110 3,-147 0,-16 1,-36 0,-51l-80 0c-1,9 0,149 0,163 0,12 -1,26 -8,32 -18,16 -48,-9 -31,-33 10,-15 27,-5 30,-4z" class="fil0"/><path d="M389 81l22 1c1,-10 -2,-33 3,-39 9,0 3,20 5,39l22 0c1,-10 -2,-33 3,-39 9,1 2,20 5,39l22 0c1,-24 5,-58 -20,-61 -10,-1 -15,4 -21,8 -5,-4 -10,-9 -20,-8 -8,1 -14,6 -17,10 -6,9 -5,37 -4,50z" class="fil0"/><path d="M246 45l0 -23c-41,-7 -51,52 -13,60 19,4 34,-7 37,-22 3,-10 2,-47 2,-60l-23 0c0,14 2,42 0,53 -2,10 -13,10 -16,4 -2,-5 -3,-15 13,-12z" class="fil0"/><path d="M376 23l-22 0c-1,10 3,32 -3,38 -10,1 -5,-16 -6,-38l-22 0c-1,9 -1,35 1,42 7,26 43,25 51,0 2,-6 2,-34 1,-42z" class="fil0"/><path d="M478 60l0 23c22,2 32,-8 35,-26 1,-10 1,-8 8,-11l0 -23c-13,-2 -24,3 -28,11 -8,13 4,24 -15,26z" class="fil0"/><path d="M284 82l22 0c3,-29 -7,-37 10,-37l0 -23c-14,-5 -27,5 -31,15 -2,8 -2,35 -1,45z" class="fil0"/></g></g></svg>