<?xml version="1.0" encoding="UTF-8"?>
<!DOCTYPE svg PUBLIC "-//W3C//DTD SVG 1.1//EN" "http://www.w3.org/Graphics/SVG/1.1/DTD/svg11.dtd">
<!-- Creator: CorelDRAW X8 -->
<svg xmlns="http://www.w3.org/2000/svg" xml:space="preserve" width="0.399366in" height="0.450984in" version="1.1" style="shape-rendering:geometricPrecision; text-rendering:geometricPrecision; image-rendering:optimizeQuality; fill-rule:evenodd; clip-rule:evenodd"
viewBox="0 0 93 105"
 xmlns:xlink="http://www.w3.org/1999/xlink">
 <defs>
  <style type="text/css">
   <![CDATA[
    .fil0 {fill:#CED0D2}
    .fil1 {fill:#F9583F}
   ]]>
  </style>
 </defs>
 <g id="Layer_x0020_1">
  <metadata id="CorelCorpID_0Corel-Layer"/>
  <g id="_2179900354176">
   <path class="fil0" d="M41 53c0,1 -1,2 -1,3 0,1 -1,4 -1,4 -1,1 -2,1 -3,0 0,-1 1,-12 10,-12 6,0 9,3 10,8 2,7 -2,5 -3,4 0,0 0,-5 -2,-7l0 7 -10 0 0 -7zm4 -14c6,-1 7,6 2,8 -5,1 -7,-7 -2,-8zm-1 -8c-11,1 -19,11 -18,22 1,10 10,19 22,18 7,-1 11,-4 14,-7 5,-6 6,-15 2,-23 -4,-7 -12,-11 -20,-10z"/>
   <path class="fil0" d="M7 28c3,-1 4,3 2,4 -2,1 -4,-3 -2,-4zm0 -6c-4,1 -8,4 -7,9 1,4 5,8 9,7 4,-1 8,-4 7,-9 -1,-4 -4,-8 -9,-7z"/>
   <path class="fil0" d="M84 28c2,-1 4,3 1,4 -2,1 -4,-3 -1,-4zm-1 -6c-4,1 -7,4 -7,9 1,4 5,8 10,7 4,0 7,-4 7,-9 -1,-4 -5,-8 -10,-7z"/>
   <path class="fil0" d="M46 6c2,-1 3,3 1,4 -3,1 -4,-3 -1,-4zm-1 -6c-4,1 -7,4 -7,9 1,4 5,8 9,7 4,0 8,-4 7,-9 0,-4 -4,-8 -9,-7z"/>
   <path class="fil0" d="M84 72c2,-1 4,3 1,4 -2,0 -3,-2 -2,-3 0,-1 0,-1 1,-1zm-1 -6c-4,1 -7,4 -7,9 1,4 5,8 10,7 4,-1 7,-5 6,-10 0,-4 -4,-7 -9,-6z"/>
   <path class="fil0" d="M46 95c2,-1 3,2 1,3 -2,1 -4,-2 -1,-3zm8 2c1,-4 -3,-8 -7,-9 -4,0 -8,3 -9,7 0,5 3,9 7,10 5,0 9,-3 9,-8z"/>
   <path class="fil0" d="M8 72c2,-1 3,3 1,4 -3,0 -4,-3 -1,-4zm-1 -6c-4,0 -7,4 -7,9 0,4 4,7 9,7 4,-1 8,-4 7,-9 0,-4 -4,-8 -9,-7z"/>
   <path class="fil1" d="M41 53l0 7 10 0 0 -7c2,2 2,7 2,7 1,1 5,3 3,-4 -1,-5 -4,-8 -10,-8 -9,0 -10,11 -10,12 1,1 2,1 3,0 0,0 1,-3 1,-4 0,-1 1,-2 1,-3z"/>
   <path class="fil0" d="M16 80c0,1 14,8 16,9 0,1 4,3 5,3 0,-1 1,-1 1,-2l-20 -12 -2 2z"/>
   <path class="fil0" d="M54 90l2 2 21 -12c-1,0 -1,-1 -2,-2 0,0 -4,2 -5,3l-16 9z"/>
   <path class="fil0" d="M54 14c0,0 1,0 1,0l0 1c0,0 0,0 0,0l4 2c2,1 15,9 16,9 0,-1 1,-2 1,-2l-20 -12c0,0 -1,2 -2,2z"/>
   <path class="fil0" d="M16 24c1,1 1,1 2,2 0,0 13,-8 15,-9 1,0 5,-2 5,-3l-1 -2 -21 12z"/>
   <polygon class="fil0" points="7,64 10,64 10,40 7,40 "/>
   <polygon class="fil0" points="83,64 86,64 86,40 83,40 "/>
   <path class="fil1" d="M45 39c-5,1 -3,9 2,8 5,-2 4,-9 -2,-8z"/>
   <path class="fil0" d="M45 86c1,0 2,0 3,0l0 -13 -3 0 0 13z"/>
   <path class="fil0" d="M16 68c1,0 1,1 2,2l10 -6c0,0 -1,-1 -1,-2 -1,0 -5,2 -5,3l-6 3z"/>
   <path class="fil0" d="M64 64c1,1 2,1 3,2l5 3c1,0 2,1 3,1 0,-1 1,-2 1,-2l-10 -6c0,0 -1,2 -2,2z"/>
   <path class="fil0" d="M66 39c0,1 1,2 1,3 1,0 8,-5 9,-5 0,-1 -1,-2 -1,-3 0,0 -9,5 -9,5z"/>
   <path class="fil0" d="M16 36l7 4c1,1 2,2 3,2 0,-1 1,-2 1,-3l-9 -5 -2 2z"/>
   <polygon class="fil0" points="45,28 48,28 48,18 45,18 "/>
   <path class="fil1" d="M84 72c-1,0 -1,0 -1,1 -1,1 0,3 2,3 3,-1 1,-5 -1,-4z"/>
   <path class="fil1" d="M7 28c-2,1 0,5 2,4 2,-1 1,-5 -2,-4z"/>
   <path class="fil1" d="M46 6c-3,1 -2,5 1,4 2,-1 1,-5 -1,-4z"/>
   <path class="fil1" d="M8 72c-3,1 -2,4 1,4 2,-1 1,-5 -1,-4z"/>
   <path class="fil1" d="M46 95c-3,1 -1,4 1,3 2,-1 1,-4 -1,-3z"/>
   <path class="fil1" d="M84 28c-3,1 -1,5 1,4 3,-1 1,-5 -1,-4z"/>
  </g>
 </g>
</svg>
