<svg xmlns="http://www.w3.org/2000/svg" xmlns:xlink="http://www.w3.org/1999/xlink" width="69.774" height="29.192" version="1.1" xml:space="preserve" style="shape-rendering:geometricPrecision;text-rendering:geometricPrecision;image-rendering:optimizeQuality;fill-rule:evenodd;clip-rule:evenodd" viewBox="0 0 238 99"><defs><style type="text/css">.fil0{fill:#ced0d2}</style></defs><g id="Layer_x0020_1"><metadata id="CorelCorpID_0Corel-Layer"/><g id="_2179896167168"><path d="M40 33c-1,-7 14,-21 18,-24 7,-5 24,-9 33,-2 8,6 6,23 1,32 -5,8 -12,17 -22,20l17 -51 -16 3 -17 45c-3,-3 -1,-3 -3,-6l-4 2c1,4 3,4 6,7 -2,10 -10,27 -17,32 -9,8 -30,11 -31,-6l-5 2c-1,16 28,15 42,8 14,-7 21,-17 26,-33 4,-1 8,-1 12,-2 10,-2 20,-8 25,-16 10,-12 12,-28 -1,-38 -14,-11 -45,-6 -60,10 -4,5 -8,10 -6,19 14,5 25,-13 23,-18 -4,0 -2,-2 -3,2 -3,8 -11,17 -18,14z" class="fil0"/><path d="M55 97l173 0c2,-1 2,-2 3,-4 0,-2 1,-4 2,-6l-175 0 -3 10z" class="fil0"/><path d="M225 74c-3,-1 -2,-1 -4,1 -13,12 3,-24 5,-31 4,-11 8,-21 12,-32 -3,0 -11,2 -15,3 -5,1 -3,1 -7,11 -3,9 -6,18 -9,27 -5,13 -17,37 7,29 2,0 5,-2 6,-3l5 -5z" class="fil0"/><path d="M143 58c6,-3 1,8 1,10 -2,4 -3,11 -7,12 -6,2 -2,-8 -1,-11 2,-5 2,-9 7,-11zm13 20c0,-4 6,-18 7,-24 -4,1 -11,3 -14,2 -2,-1 -4,-5 -13,-2 -14,5 -20,25 -9,29 5,2 10,-1 14,-1 2,1 1,2 7,2 4,0 10,-1 12,-5 0,-1 1,1 0,-1 -1,-2 0,-1 -4,0z" class="fil0"/><path d="M169 56l-10 28 16 0c1,-5 3,-9 4,-13 1,-4 2,-11 6,-11 0,1 1,-1 0,3 0,1 -1,3 -1,4 -3,12 13,8 15,3 -1,-2 0,0 -1,-1l-1 0c0,0 0,0 0,0 0,0 -1,0 -1,0 2,-4 5,-10 2,-14 -3,-4 -10,-1 -13,1l0 -3 -16 3z" class="fil0"/><path d="M104 57c8,-2 3,13 -2,14 -5,2 -4,-3 -3,-6 1,-4 2,-7 5,-8zm12 21c-3,-3 -2,-1 -5,1 -7,4 -19,3 -15,-6 25,8 33,-17 13,-20 -20,-2 -32,20 -22,28 6,5 26,4 29,-3z" class="fil0"/></g></g></svg>