<?xml version="1.0" encoding="UTF-8"?>
<!DOCTYPE svg PUBLIC "-//W3C//DTD SVG 1.1//EN" "http://www.w3.org/Graphics/SVG/1.1/DTD/svg11.dtd">
<!-- Creator: CorelDRAW X8 -->
<svg xmlns="http://www.w3.org/2000/svg" xml:space="preserve" width="0.601587in" height="0.431138in" version="1.1" style="shape-rendering:geometricPrecision; text-rendering:geometricPrecision; image-rendering:optimizeQuality; fill-rule:evenodd; clip-rule:evenodd"
viewBox="0 0 68 49"
 xmlns:xlink="http://www.w3.org/1999/xlink">
 <defs>
  <style type="text/css">
   <![CDATA[
    .fil0 {fill:#CED0D2}
   ]]>
  </style>
 </defs>
 <g id="Layer_x0020_1">
  <metadata id="CorelCorpID_0Corel-Layer"/>
  <g id="_2179903763792">
   <path class="fil0" d="M31 16c0,-1 0,-4 0,-5 4,0 5,5 0,5zm-11 -6l-1 2 2 0 -1 -2zm29 0l-1 2 2 0 -1 -2zm-18 -2c0,-3 0,-4 1,-4 1,0 1,0 1,1 2,1 0,3 -2,3zm-31 8l0 1c1,0 2,1 3,1 3,1 7,1 10,-1 1,1 1,2 2,2 1,0 1,0 1,-1 1,-1 1,-1 2,-1 2,0 3,-1 4,-1 1,1 1,2 2,3l1 0c1,1 5,1 6,1 4,0 5,-2 6,-2l0 1c1,0 2,0 3,0 1,0 2,0 3,-1 0,0 1,1 1,1 2,-1 1,-2 3,-2 3,-1 3,-1 4,-2 0,2 1,3 2,4 1,0 0,0 1,0l0 0c0,0 0,0 0,1l5 -2 0 -7c1,2 3,6 4,8 1,0 2,0 3,-1 1,0 1,0 1,-2 1,-1 1,-6 1,-6l0 -4c0,-2 0,-4 -1,-5 -1,-1 -3,0 -4,1 0,1 1,3 1,4 0,2 0,4 0,6l-3 -6c-1,-1 -1,-2 -2,-3 0,-1 -1,-1 -1,-3l-4 1c0,1 1,7 0,11 0,0 0,0 0,0l0 0c0,-1 -1,-2 -1,-3 -2,-3 -3,-6 -4,-9l-1 0c-1,1 -2,1 -3,1 0,1 1,2 1,4 0,1 -1,2 -1,3 -1,5 -2,5 -2,6 -1,-3 0,-10 0,-13 0,0 -4,1 -5,1l0 10c-1,-1 -1,-2 -2,-2 0,-1 0,-1 1,-2 2,-2 1,-5 0,-6 -2,-2 -2,-1 -5,-1 -2,0 -4,0 -5,0 -1,2 -2,2 -2,3 1,1 2,0 2,1 0,2 0,8 -1,9 -2,-2 -4,-11 -6,-14 -1,0 -3,1 -4,1 1,3 2,3 1,6 -1,1 -1,4 -2,5 -1,-2 -1,-2 -3,-4 -1,-1 -2,0 -4,-1 -2,0 -2,-3 0,-3 1,0 3,0 5,0 1,0 2,-3 2,-4 -3,0 -7,1 -9,0l-1 0c-1,1 -3,4 -3,6 -1,3 2,4 4,5 6,1 4,3 3,4 -4,1 -6,-2 -7,-2 -1,1 -1,2 -2,3z"/>
   <path class="fil0" d="M31 49l4 0c2,0 16,-1 23,-17 1,-3 2,-7 2,-11l-2 0c0,5 0,7 -1,11 -7,16 -29,22 -42,8 -5,-5 -7,-11 -7,-19l-1 0c-1,8 3,16 7,19 0,1 1,2 2,2 6,7 14,6 15,7z"/>
   <path class="fil0" d="M10 21c-1,10 5,19 13,23 10,5 21,2 28,-5 0,-1 1,-1 1,-2 1,-2 3,-3 3,-5 2,-3 2,-7 2,-11l-1 0c0,8 -3,13 -6,17 -1,1 -1,1 -2,2 -1,0 -1,1 -2,1 -6,5 -15,6 -22,2 -9,-4 -13,-12 -13,-22l-1 0z"/>
   <path class="fil0" d="M51 34c3,-4 4,-8 4,-13l-2 0c0,4 0,6 -1,9 -3,8 -11,13 -19,13 -6,0 -11,-3 -14,-7 -4,-3 -6,-8 -6,-15l-1 0c-1,15 14,28 30,21 3,-1 5,-3 7,-5 1,-1 1,-2 2,-3z"/>
   <path class="fil0" d="M47 36c4,-4 5,-9 5,-15l-1 0c0,6 -2,10 -5,14 -1,1 -3,3 -5,3 -9,4 -18,1 -22,-6 -3,-3 -3,-7 -3,-11l-1 0c-1,4 0,9 3,12 0,0 0,1 1,1 1,2 4,4 6,6 8,3 17,1 22,-4z"/>
   <path class="fil0" d="M49 21l-1 0c0,6 -1,9 -4,12 -4,5 -13,6 -19,2 -3,-2 -5,-4 -6,-7 0,-3 -1,-4 -1,-7l-1 0c0,3 0,5 1,7 2,4 3,6 6,8 2,2 6,3 9,3 10,0 17,-8 16,-18z"/>
   <path class="fil0" d="M47 21l-1 0c0,6 -3,10 -7,13 -8,3 -18,-2 -18,-13l-1 0c-1,5 1,8 3,11 5,5 12,6 18,2 4,-3 7,-8 6,-13z"/>
   <path class="fil0" d="M43 21l-1 0c1,10 -11,13 -15,8 -2,-3 -2,-4 -3,-8l-1 0c-1,6 4,12 10,12 6,0 11,-5 10,-12z"/>
   <path class="fil0" d="M41 21l-2 0c1,4 -2,8 -6,8 -2,0 -4,-1 -5,-2 -1,-2 -1,-3 -1,-6l-1 0c-1,5 3,9 7,9 5,0 8,-4 8,-9z"/>
   <path class="fil0" d="M28 21c-1,4 2,7 5,7 4,0 6,-3 5,-7l-1 0c2,6 -9,7 -7,0l-2 0z"/>
   <path class="fil0" d="M33 21c-2,1 -1,4 1,3 1,-1 1,-3 -1,-3z"/>
  </g>
 </g>
</svg>
