<svg xmlns="http://www.w3.org/2000/svg" xmlns:xlink="http://www.w3.org/1999/xlink" width="86.268" height="18.614" version="1.1" xml:space="preserve" style="shape-rendering:geometricPrecision;text-rendering:geometricPrecision;image-rendering:optimizeQuality;fill-rule:evenodd;clip-rule:evenodd" viewBox="0 0 183 39"><defs><style type="text/css">.fil0,.fil1{fill:#ced0d2}.fil1{fill-rule:nonzero}</style></defs><g id="Layer_x0020_1"><metadata id="CorelCorpID_0Corel-Layer"/><g id="_2179896168704"><path d="M166 19l-2 0 0 -13c4,0 5,1 5,7 0,3 0,6 -3,6zm-11 19l9 0 0 -15 5 0c1,5 0,11 0,15l9 0c0,-17 1,-13 -5,-17 8,-2 11,-19 -7,-19l-11 0 0 36z" class="fil0"/><path d="M81 36c-6,0 -5,-15 -5,-21 0,-13 7,-12 8,-5 0,4 2,26 -3,26zm0 3l-1 0c-4,0 -7,-2 -10,-5 -3,-4 -4,-10 -4,-15 0,-8 5,-17 13,-17l3 0c14,0 17,28 5,35 -2,2 -4,2 -6,2z" class="fil0"/><path d="M138 36c-6,0 -5,-15 -5,-21 0,-13 7,-12 8,-6 0,5 2,27 -3,27zm0 3l-2 0c-6,0 -13,-7 -13,-20 0,-9 5,-17 14,-17 17,0 17,23 11,31 -1,2 -2,3 -4,4 -2,2 -4,2 -6,2z" class="fil0"/><path d="M98 36c0,2 -2,2 4,2l0 -20c0,0 0,-1 1,1 2,3 9,19 11,19 5,0 7,1 7,-1l0 -33c0,-2 -1,-2 -4,-2 -2,0 -1,4 -1,9 0,3 0,6 0,10l-10 -17c-2,-2 0,-2 -8,-2l0 34z" class="fil0"/><path d="M41 12c0,10 7,11 12,14 2,1 3,1 4,3 3,5 -6,10 -10,4 -4,-5 1,-6 -5,-6 -2,0 -1,2 -1,4 4,13 23,11 23,-5 0,-9 -12,-10 -15,-14 -4,-5 4,-10 9,-4 3,4 -1,4 5,4 0,-14 -22,-14 -22,0z" class="fil0"/><g><path d="M180 0c1,0 3,1 3,3 0,1 -2,2 -3,2 -1,0 -3,-1 -3,-2 0,-2 2,-3 3,-3zm0 0c1,0 2,1 2,3 0,1 -1,2 -2,2 -1,0 -2,-1 -2,-2 0,-2 1,-3 2,-3z" class="fil0"/><path d="M179 4l0 -3 1 0c1,0 1,0 1,0 0,0 0,1 0,1 0,0 0,0 0,0 0,0 0,0 0,1 0,0 0,0 0,0 0,0 0,0 0,0 0,0 0,0 0,0l0 1 0 0 -1 -1c0,0 0,0 0,0 0,0 0,0 0,0 0,0 0,0 0,0l0 0 0 1 -1 0zm1 -2l0 0c0,0 0,0 1,0 0,0 0,0 0,0 0,0 0,0 0,0 0,0 0,0 0,0 0,0 0,0 -1,0 0,0 0,0 0,0l0 0 0 0z" class="fil1"/></g><path d="M26 2c5,0 9,4 9,9 0,5 -3,8 -7,9l0 19 -5 0 0 -19c-4,-1 -7,-5 -7,-9 0,-5 5,-9 10,-9z" class="fil0"/><path d="M9 39c-5,0 -9,-4 -9,-10 0,-4 3,-8 7,-9l0 -18 5 0 0 18c4,1 7,5 7,9 0,6 -4,10 -10,10z" class="fil0"/></g></g></svg>