<svg xmlns="http://www.w3.org/2000/svg" xmlns:xlink="http://www.w3.org/1999/xlink" width="80.151" height="17.972" version="1.1" xml:space="preserve" style="shape-rendering:geometricPrecision;text-rendering:geometricPrecision;image-rendering:optimizeQuality;fill-rule:evenodd;clip-rule:evenodd" viewBox="0 0 186 42"><defs><style type="text/css">.fil0{fill:#ced0d2}</style></defs><g id="Layer_x0020_1"><metadata id="CorelCorpID_0Corel-Layer"/><g id="_2216035126784"><path d="M11 18c0,-1 0,-3 0,-4 1,-1 1,-1 2,-1 4,-2 11,-6 12,-10l-13 0 -9 36 13 -1c0,-5 -2,-9 -7,-12l0 -4c6,1 14,7 16,12 1,-1 6,-25 6,-26 -1,1 -1,1 -2,2 -5,5 -11,7 -18,8z" class="fil0"/><path d="M11 2l15 0c0,3 -4,6 -6,8 -7,5 -7,1 -8,7 7,-1 13,-4 17,-9l4 -4 -8 34c-1,-2 -1,-3 -2,-5 -3,-4 -8,-9 -13,-10l1 3c1,1 1,1 2,2 1,1 2,2 2,3 1,2 3,6 2,8l-15 0 9 -37zm-11 39l0 0 19 0c1,-9 -3,-11 -4,-14 5,3 8,9 9,14l2 0c2,-7 4,-14 5,-20 1,-5 5,-17 5,-21l-2 0c-2,2 -2,3 -4,5 -2,3 -8,8 -13,9 2,-1 6,-4 7,-6 2,-2 4,-4 5,-8l-19 0 -10 41z" class="fil0"/><path d="M169 12c1,1 1,11 2,14l-9 0 7 -14zm-92 14c0,-2 7,-14 7,-14l1 14 -8 0zm-39 -14c2,2 2,-2 5,-4 2,-2 4,-2 8,-2 0,2 -2,6 -2,9 -1,3 -2,6 -3,9 0,3 -1,6 -2,9 -1,4 -2,6 -6,6 -3,0 -4,0 -3,2 2,1 29,0 34,0 2,0 3,1 4,0 1,-3 0,-3 -1,-4 0,-1 2,-5 3,-7l11 0c0,2 1,7 0,7 -1,1 -2,1 -3,2 0,2 1,2 3,2l18 0c1,0 2,0 2,0 1,-3 -1,-3 -2,-4 0,-1 7,-20 8,-23l2 23c0,1 -3,5 2,4 2,0 4,0 5,0 3,0 4,1 5,-1 1,-2 -1,-1 0,-3l9 -23c0,4 2,21 1,23 0,1 -4,1 -2,4 1,1 4,0 6,0l12 0c3,0 5,1 6,-1 0,-2 -1,-2 -2,-3 0,-1 3,-5 3,-7l12 0c0,2 1,7 -1,7 -1,1 -1,1 -2,2 0,2 1,2 2,2l13 0c2,0 3,0 2,-2 -1,-2 -2,0 -2,-4l-2 -23c0,-2 -1,-4 -1,-6 0,-1 0,-2 0,-3 1,-1 2,-1 1,-2 -1,-1 -5,-1 -6,-1 -2,0 -6,0 -7,0 -2,2 1,2 0,5l-15 29c-1,1 -3,4 -4,3 -1,-1 -1,-2 -1,-2l-2 -28c0,-1 -1,-3 0,-5 2,-2 -1,-2 -2,-2l-11 0c-1,3 1,2 1,4 0,0 -9,22 -9,23 -1,-4 -1,-9 -1,-13l-1 -10c0,-2 1,-2 1,-3 -1,-1 -6,-1 -8,-1 -1,0 -7,-1 -5,2 0,1 0,0 0,2 0,0 0,1 0,1l-11 30c-1,1 -1,1 -1,1 -1,-1 -1,-7 -2,-8l-2 -23c0,-3 2,-2 1,-4 -1,-1 -11,-1 -13,-1 -1,3 2,2 0,6 -1,1 -2,3 -3,5 -2,3 -3,6 -5,10 -2,3 -4,6 -6,9 -4,8 -3,8 -12,8 -4,0 -2,-4 -1,-7 2,-8 4,-18 6,-25 3,0 6,-1 7,1 2,2 1,7 3,5 2,-1 2,-8 3,-10 2,-1 1,-2 -1,-2l-33 0c-2,0 -2,1 -1,2 0,3 -3,8 -2,10z" class="fil0"/></g></g></svg>