<svg xmlns="http://www.w3.org/2000/svg" xmlns:xlink="http://www.w3.org/1999/xlink" width="104.022" height="44.322" version="1.1" xml:space="preserve" style="shape-rendering:geometricPrecision;text-rendering:geometricPrecision;image-rendering:optimizeQuality;fill-rule:evenodd;clip-rule:evenodd" viewBox="0 0 151 64"><defs><style type="text/css">.fil0{fill:#ced0d2}</style></defs><g id="Layer_x0020_1"><metadata id="CorelCorpID_0Corel-Layer"/><g id="_2179908489088"><path d="M112 44c-2,0 -4,1 -5,-1 -1,-1 1,-3 2,-4 1,1 1,3 2,4 1,0 1,0 1,1zm-36 -9c1,0 3,3 3,5 0,6 -11,5 -6,-2 0,-1 2,-3 3,-3zm-76 15l0 0c4,0 6,-2 13,-1 9,0 19,5 26,4 2,0 5,0 6,-1 2,-1 4,-2 5,-4 1,1 3,3 6,0 1,-1 2,-1 2,-2 1,1 2,3 4,3 2,0 4,-2 5,-2 3,3 6,3 10,1 2,-1 5,-3 6,-5 0,0 1,-2 1,-2 1,2 0,7 0,10 -1,3 -1,5 -3,7 -5,5 -10,1 -11,4 0,2 2,2 3,2l2 0c1,0 4,0 7,-3l3 -3c1,-1 2,-2 2,-3 4,-6 3,-17 4,-18 0,0 3,-2 3,2 0,2 -1,5 0,7 0,1 2,2 3,2 3,1 4,-1 6,-1 0,1 0,0 1,1 5,2 8,-1 10,-2 1,1 2,3 4,3 3,-1 4,-3 5,-3 0,2 -1,2 -1,4 9,-3 6,-13 9,-14 1,-1 3,0 3,0 1,1 2,5 4,8 1,2 2,3 4,4 2,1 4,0 5,-1 3,-2 3,-3 4,-4l0 0c-3,1 -5,0 -7,-2 -4,-6 -3,-13 -9,-11 -4,1 -5,3 -6,4 0,-1 -1,-2 -2,-3 -3,-1 -7,3 -8,4 2,0 3,1 4,2 0,2 0,3 0,5 -3,2 -5,-1 -6,-2l-2 -3c-1,-1 -2,-2 -2,-3 -6,-7 -11,0 -12,2 2,-1 6,-1 7,1 -1,1 -3,2 -4,3 -2,1 -2,2 -2,4l-1 0c-1,1 -2,0 -2,-1 -1,-1 0,-7 0,-10 0,-1 0,-2 -1,-2 -2,0 -5,4 -7,4 0,-1 0,-3 0,-4 -1,0 -4,4 -5,5 0,0 0,0 -1,0 0,0 0,1 0,1 0,0 0,0 0,0l0 0c-1,-1 -2,-3 -4,-7 -1,0 -1,-1 -2,-2l-8 -9c-2,-3 -3,-5 -4,-8 -2,-7 2,-9 2,-11l-1 0c0,0 -1,1 -2,1 -5,3 -6,11 -3,16 2,3 6,9 8,12l3 3c0,1 -9,3 -8,13 -4,0 -3,-4 -3,-7 0,-3 1,-12 1,-14 -1,-4 -8,1 -9,3 2,0 4,-1 4,2 0,1 -1,7 -1,10 -1,1 0,3 -1,5 0,0 -5,4 -4,-3 1,-2 2,-7 0,-8 -2,-1 -7,3 -8,4 2,1 3,-2 3,3 0,6 1,6 -2,8 -2,1 -6,1 -8,0 -9,-3 -10,-4 -20,-5 1,-1 6,-4 7,-5 3,-2 6,-3 9,-5 3,-1 5,-3 7,-5 1,-1 6,-5 6,-6 -1,-1 -2,0 -3,0 -3,0 -6,0 -9,-1 -4,-1 -6,-2 -10,-2 -4,-1 -7,0 -11,1 -2,1 -6,4 -7,5 1,0 2,0 3,-1 2,0 3,0 4,0 8,0 9,1 15,2 3,0 5,1 8,1 -2,2 -7,5 -9,6 -7,4 -18,7 -25,13 -2,3 -2,3 -3,4z" class="fil0"/><path d="M93 23c0,1 1,1 2,3 0,2 -1,3 -1,4 1,0 1,0 2,-1 1,0 1,0 2,-1 1,-3 2,-5 1,-8 -1,-1 -2,0 -4,1 -1,1 -2,1 -2,2z" class="fil0"/><path d="M85 24c1,2 1,2 2,3 0,2 -1,3 -1,4 2,0 4,-2 5,-4 1,-2 0,-5 -1,-6 -1,0 -5,3 -5,3z" class="fil0"/><path d="M48 24c1,0 2,2 3,3 1,2 -1,2 -1,4 2,-1 3,-3 4,-4 1,-3 2,-5 0,-7 -1,0 -5,3 -6,4z" class="fil0"/></g></g></svg>